# This file uses centimeters as units for non-parametric coordinates.

mtllib Road.mtl
g default
v -10.500001 -0.500000 13.500000
v 8.500001 -0.500000 13.500000
v -10.500001 0.202746 13.500000
v 8.500001 0.202746 13.500000
v -10.500001 0.202746 -13.500000
v 8.500001 0.202746 -13.500000
v -10.500001 -0.500000 -13.500000
v 8.500001 -0.500000 -13.500000
vt 0.910399 0.637712
vt 0.910399 0.001273
vt 0.926964 0.001273
vt 0.926964 0.637712
vt 0.933786 0.637712
vt 0.933786 0.001273
vt 0.950351 0.001273
vt 0.950351 0.637712
vt 0.957174 0.449137
vt 0.957174 0.001273
vt 0.973739 0.001273
vt 0.973739 0.449137
vt 0.981443 0.449137
vt 0.981443 0.001273
vt 0.998008 0.001273
vt 0.998008 0.449137
vt 0.011656 0.000000
vt 0.944315 0.000000
vt 0.944315 1.000000
vt 0.011656 1.000000
vt 0.011656 1.000000
vt 0.944315 1.000000
vt 0.944315 0.000000
vt 0.011656 0.000000
vn 0.000000 0.000000 1.000000
vn 0.000000 0.000000 1.000000
vn 0.000000 0.000000 1.000000
vn 0.000000 0.000000 1.000000
vn 0.000000 1.000000 0.000000
vn 0.000000 1.000000 0.000000
vn 0.000000 1.000000 0.000000
vn 0.000000 1.000000 0.000000
vn 0.000000 0.000000 -1.000000
vn 0.000000 0.000000 -1.000000
vn 0.000000 0.000000 -1.000000
vn 0.000000 0.000000 -1.000000
vn 0.000000 -1.000000 0.000000
vn 0.000000 -1.000000 0.000000
vn 0.000000 -1.000000 0.000000
vn 0.000000 -1.000000 0.000000
vn 1.000000 0.000000 0.000000
vn 1.000000 0.000000 0.000000
vn 1.000000 0.000000 0.000000
vn 1.000000 0.000000 0.000000
vn -1.000000 0.000000 0.000000
vn -1.000000 0.000000 0.000000
vn -1.000000 0.000000 0.000000
vn -1.000000 0.000000 0.000000
s off
g Road
usemtl blinn1SG
f 1/9/1 2/10/2 4/11/3 3/12/4
f 3/17/5 4/18/6 6/19/7 5/20/8
f 5/13/9 6/14/10 8/15/11 7/16/12
f 7/21/13 8/22/14 2/23/15 1/24/16
f 2/1/17 8/2/18 6/3/19 4/4/20
f 7/5/21 1/6/22 3/7/23 5/8/24
