# This file uses centimeters as units for non-parametric coordinates.

mtllib Walkway.mtl
g default
v -15.500001 -0.500000 13.500000
v -10.500001 -0.500000 13.500000
v -15.500001 0.500000 13.500000
v -15.500001 0.500000 -13.500000
v -15.500001 -0.500000 -13.500000
v -10.500001 -0.500000 -13.500000
v -10.540189 0.350015 13.500000
v -10.649986 0.459812 13.500000
v -10.799970 0.500000 13.500000
v -10.500001 0.200030 13.500000
v -10.500001 0.200030 -13.500000
v -10.799970 0.500000 -13.500000
v -10.649986 0.459812 -13.500000
v -10.540189 0.350015 -13.500000
vt 0.375000 0.250000
vt 0.625000 0.750000
vt 0.375000 1.000000
vt 0.625000 1.000000
vt 0.125000 0.000000
vt 0.125000 0.250000
vt 0.375000 0.500000
vt 0.625000 0.000000
vt 0.875000 0.000000
vt 0.610002 0.250000
vt 0.875000 0.175007
vt 0.375000 0.000000
vt 0.625000 0.175007
vt 0.625000 0.574993
vt 0.375000 0.750000
vt 0.610002 0.500000
vt 0.625000 0.250000
vt 0.615853 0.250652
vt 0.614613 0.498976
vt 0.875000 0.250000
vt 0.625000 0.500000
vn 0.000000 1.000000 0.000000
vn 0.008286 0.999966 0.000000
vn 0.008286 0.999966 0.000000
vn 0.000000 1.000000 0.000000
vn 0.000000 -1.000000 0.000000
vn 0.000000 -1.000000 0.000000
vn 0.000000 -1.000000 0.000000
vn 0.000000 -1.000000 0.000000
vn 1.000000 0.000000 0.000000
vn 1.000000 0.000000 0.000000
vn 0.998884 0.047226 0.000000
vn 0.998884 0.047226 0.000000
vn -1.000000 0.000000 0.000000
vn -1.000000 0.000000 0.000000
vn -1.000000 0.000000 0.000000
vn -1.000000 0.000000 0.000000
vn 0.258820 0.965926 0.000000
vn 0.258820 0.965926 0.000000
vn 0.707107 0.707106 0.000000
vn 0.866026 0.499998 0.000000
vn 0.866026 0.499998 0.000000
vn 0.707107 0.707106 0.000000
vn 0.000000 0.000000 1.000000
vn 0.000000 0.000000 1.000000
vn 0.000000 0.000000 1.000000
vn 0.000000 0.000000 1.000000
vn 0.000000 0.000000 1.000000
vn 0.000000 0.000000 1.000000
vn 0.000000 0.000000 1.000000
vn 0.000000 0.000000 -1.000000
vn 0.000000 0.000000 -1.000000
vn 0.000000 0.000000 -1.000000
vn 0.000000 0.000000 -1.000000
vn 0.000000 0.000000 -1.000000
vn 0.000000 0.000000 -1.000000
vn 0.000000 0.000000 -1.000000
s 1
g pCube1
usemtl initialShadingGroup
f 3/1/1 9/10/2 12/16/3 4/7/4
s off
f 5/15/5 6/2/6 2/4/7 1/3/8
s 2
f 2/8/9 6/9/10 11/11/11 10/13/12
s off
f 5/5/13 1/12/14 3/1/15 4/6/16
s 1
f 9/10/2 8/18/17 13/19/18 12/16/3
s 2
f 8/18/19 7/17/20 14/21/21 13/19/22
f 7/17/20 10/13/12 11/11/11 14/20/21
s off
f 7/17/23 8/18/24 9/10/25 3/1/26 1/12/27 2/8/28 10/13/29
f 11/14/30 6/2/31 5/15/32 4/7/33 12/16/34 13/19/35 14/21/36
